<svg xmlns="http://www.w3.org/2000/svg" viewBox="0 0 410.41 43.83"><defs><style>.a{fill:#fff;}</style></defs><title>Ankush Anand White Color</title><path class="a" d="M24.2,34.72H11.27a.62.62,0,0,0-.6.45L8.3,43.05a.64.64,0,0,1-.61.46H.63a.64.64,0,0,1-.6-.84L13.9,1.28a.63.63,0,0,1,.6-.43h6.42a.63.63,0,0,1,.6.43L35.46,42.67a.63.63,0,0,1-.6.84H27.8a.63.63,0,0,1-.6-.45l-2.39-7.89A.63.63,0,0,0,24.2,34.72ZM13.79,27.6h7.89a.64.64,0,0,0,.61-.82l-4-13.13a.63.63,0,0,0-1.21,0L13.18,26.78A.64.64,0,0,0,13.79,27.6Z"/><path class="a" d="M70.52,43.48h-6.9a.63.63,0,0,1-.55-.33L49,17.58a.63.63,0,0,0-1.19.3v25a.64.64,0,0,1-.63.64H40.57a.64.64,0,0,1-.63-.64V1.45a.63.63,0,0,1,.63-.63h6.9a.65.65,0,0,1,.56.33L62.09,26.78a.63.63,0,0,0,1.18-.31v-25a.64.64,0,0,1,.64-.63h6.61a.64.64,0,0,1,.64.63V42.84A.64.64,0,0,1,70.52,43.48Z"/><path class="a" d="M89.38,27l-3.39,4a.68.68,0,0,0-.14.41V42.81a.64.64,0,0,1-.64.64H78.57a.64.64,0,0,1-.63-.64V1.42a.63.63,0,0,1,.63-.63h6.64a.64.64,0,0,1,.64.63V18a.63.63,0,0,0,1.16.35l2.32-3.54L98.92,1.06a.63.63,0,0,1,.52-.27h8.16a.63.63,0,0,1,.52,1L95.45,19.41a.62.62,0,0,0,0,.69l13.25,22.39a.64.64,0,0,1-.55,1h-7.93a.62.62,0,0,1-.55-.32l-9.23-16A.63.63,0,0,0,89.38,27Z"/><path class="a" d="M142.23.59a.63.63,0,0,1,.63.63V28.68q0,7-3.94,11.08t-10.77,4.07q-6.74,0-10.68-4t-4-10.87V1.22a.64.64,0,0,1,.64-.63h6.64a.63.63,0,0,1,.63.63V28.74q0,4.19,1.81,6.11a6.52,6.52,0,0,0,5,1.92q6.66,0,6.77-7.8V1.22a.63.63,0,0,1,.63-.63Z"/><path class="a" d="M168.73,32.05a4.73,4.73,0,0,0-1.58-3.82,19.79,19.79,0,0,0-5.7-2.81,38.25,38.25,0,0,1-6.51-2.92q-6.54-3.93-6.54-10.58a11.06,11.06,0,0,1,1.75-6.16,11.69,11.69,0,0,1,5-4.24A17.38,17.38,0,0,1,162.56,0a15.73,15.73,0,0,1,7.33,1.66,12,12,0,0,1,5,4.67,12.94,12.94,0,0,1,1.77,6.2.63.63,0,0,1-.64.65h-6.65a.63.63,0,0,1-.62-.61,5.83,5.83,0,0,0-1.65-3.94A6.34,6.34,0,0,0,162.43,7a6.8,6.8,0,0,0-4.51,1.36A4.49,4.49,0,0,0,156.31,12a4.23,4.23,0,0,0,1.88,3.49,20.27,20.27,0,0,0,5.55,2.64q6.75,2.25,9.84,5.59A11.78,11.78,0,0,1,176.66,32a10.7,10.7,0,0,1-3.77,8.69q-3.76,3.15-10.15,3.15a18,18,0,0,1-8.07-1.8,13.19,13.19,0,0,1-5.55-4.94,13.54,13.54,0,0,1-1.9-6.61.65.65,0,0,1,.64-.66h6.67a.63.63,0,0,1,.63.62q.33,6.45,7.58,6.44a6.87,6.87,0,0,0,4.41-1.27A4.33,4.33,0,0,0,168.73,32.05Z"/><path class="a" d="M212.73,43.42h-6.64a.64.64,0,0,1-.63-.64v-17a.64.64,0,0,0-.64-.63H190.66a.63.63,0,0,0-.63.63v17a.64.64,0,0,1-.63.64h-6.65a.64.64,0,0,1-.63-.64V1.39a.63.63,0,0,1,.63-.63h6.65a.63.63,0,0,1,.63.63v16a.64.64,0,0,0,.63.64h14.16a.64.64,0,0,0,.64-.64v-16a.63.63,0,0,1,.63-.63h6.64a.64.64,0,0,1,.64.63V42.78A.64.64,0,0,1,212.73,43.42Z"/><path class="a" d="M251,34.6H238.07a.63.63,0,0,0-.61.45l-2.37,7.89a.62.62,0,0,1-.6.45h-7.06a.63.63,0,0,1-.6-.84L240.69,1.16a.65.65,0,0,1,.6-.43h6.42a.63.63,0,0,1,.6.43l13.95,41.39a.64.64,0,0,1-.6.84H254.6a.63.63,0,0,1-.61-.45l-2.39-7.89A.63.63,0,0,0,251,34.6Zm-10.41-7.12h7.9a.63.63,0,0,0,.6-.82l-4-13.13a.63.63,0,0,0-1.21,0L240,26.67A.64.64,0,0,0,240.58,27.48Z"/><path class="a" d="M297.32,43.36h-6.91a.63.63,0,0,1-.55-.33l-14-25.57a.63.63,0,0,0-1.19.3v25a.63.63,0,0,1-.63.63h-6.65a.63.63,0,0,1-.63-.63V1.34a.64.64,0,0,1,.63-.64h6.91a.63.63,0,0,1,.55.33l14.06,25.63a.63.63,0,0,0,1.19-.3v-25A.64.64,0,0,1,290.7.7h6.62a.64.64,0,0,1,.63.64V42.73A.63.63,0,0,1,297.32,43.36Z"/><path class="a" d="M326.59,34.54H313.66a.62.62,0,0,0-.6.45l-2.37,7.89a.63.63,0,0,1-.6.45H303a.63.63,0,0,1-.6-.83L316.29,1.11a.64.64,0,0,1,.6-.44h6.42a.65.65,0,0,1,.6.43l13.94,41.39a.63.63,0,0,1-.59.84h-7.07a.63.63,0,0,1-.6-.45L327.2,35A.63.63,0,0,0,326.59,34.54Zm-10.41-7.12h7.89a.63.63,0,0,0,.61-.81l-4-13.14a.63.63,0,0,0-1.21,0l-3.93,13.14A.63.63,0,0,0,316.18,27.42Z"/><path class="a" d="M372.92,43.3H366a.63.63,0,0,1-.55-.33l-14-25.57a.63.63,0,0,0-1.19.3v25a.63.63,0,0,1-.63.63H343a.63.63,0,0,1-.63-.63V1.28A.64.64,0,0,1,343,.64h6.9a.64.64,0,0,1,.56.33L364.48,26.6a.63.63,0,0,0,1.18-.3v-25a.64.64,0,0,1,.64-.64h6.62a.64.64,0,0,1,.63.64V42.67A.63.63,0,0,1,372.92,43.3Z"/><path class="a" d="M381.06,42.64V1.25a.64.64,0,0,1,.64-.63h11.18a16.52,16.52,0,0,1,9.05,2.53,16.91,16.91,0,0,1,6.24,7.21A24.29,24.29,0,0,1,410.41,21v2a24.35,24.35,0,0,1-2.2,10.58A16.9,16.9,0,0,1,402,40.69a16.68,16.68,0,0,1-9,2.58H381.7A.64.64,0,0,1,381.06,42.64ZM389,8.37V35.58a.64.64,0,0,0,.64.63h3.19a8.22,8.22,0,0,0,7.09-3.37q2.46-3.36,2.51-9.64V21q0-6.51-2.43-9.86a8.2,8.2,0,0,0-7.09-3.36h-3.27A.64.64,0,0,0,389,8.37Z"/></svg>